<svg width="205" height="50" viewBox="0 0 205 50" fill="none" xmlns="http://www.w3.org/2000/svg">
<g clip-path="url(#clip0_244_552)">
<path d="M34.7227 29.9019L41.5887 23.0391C41.5887 18.3332 40.4117 13.8234 38.2538 9.90186L22.2657 24.7058V49.3136H25.3064C35.9978 49.3136 44.7275 40.6862 44.7275 29.9019H34.7227Z" fill="white"/>
<path d="M10.0048 19.4118L3.13876 26.2745C3.13876 30.9804 4.31579 35.4902 6.47368 39.4118L22.4617 24.6078V0H19.4211C8.72966 0 0 8.62745 0 19.4118H10.0048Z" fill="white"/>
<path d="M161.433 23.043H179.277V8.54883H189.682C191.848 8.54883 193.7 8.9253 195.237 9.67824C196.775 10.4312 197.984 11.4194 198.863 12.643C199.773 13.8351 200.369 15.1685 200.652 16.643C200.934 18.0861 200.887 19.5136 200.511 20.9253C200.165 22.3057 199.491 23.592 198.486 24.7842C197.513 25.9763 196.211 26.8861 194.578 27.5136L204.136 41.49H197.403L188.505 28.3606H184.927V41.49H179.277V28.3606H161.433V23.043ZM173.062 8.54883V13.8194H157.384V36.2194H173.062V41.49H151.734V8.54883H173.062ZM189.682 23.043C190.875 23.043 191.863 22.8234 192.648 22.3842C193.464 21.9136 194.06 21.3489 194.437 20.69C194.845 19.9998 195.049 19.2626 195.049 18.4783C195.049 17.6626 194.845 16.9253 194.437 16.2665C194.029 15.5763 193.433 15.0116 192.648 14.5724C191.863 14.1018 190.875 13.8665 189.682 13.8665H184.927V23.043H189.682Z" fill="white"/>
<path d="M132.554 8.54883C135.002 8.54883 137.011 9.05079 138.58 10.0547C140.149 11.0587 141.279 12.3136 141.97 13.8194C142.692 15.294 142.959 16.8626 142.77 18.5253C142.613 20.1881 142.017 21.6783 140.981 22.9959C142.237 23.7802 143.225 24.7842 143.947 26.0077C144.701 27.2312 145.171 28.5332 145.36 29.9136C145.579 31.2626 145.517 32.6273 145.171 34.0077C144.858 35.3881 144.277 36.643 143.429 37.7724C142.582 38.8704 141.468 39.7645 140.087 40.4547C138.706 41.1449 137.073 41.49 135.19 41.49H121.113V8.54883H132.554ZM126.763 13.7724V21.443H132.648C133.621 21.4116 134.421 21.2077 135.049 20.8312C135.708 20.4547 136.195 19.9842 136.508 19.4194C136.854 18.8547 137.011 18.243 136.979 17.5842C136.979 16.9253 136.807 16.3136 136.461 15.7489C136.147 15.1842 135.661 14.7136 135.002 14.3371C134.343 13.9606 133.527 13.7724 132.554 13.7724H126.763ZM126.763 26.7606V36.2194H135.19C136.195 36.2194 137.026 35.9841 137.685 35.5136C138.345 35.043 138.831 34.4626 139.145 33.7724C139.49 33.0822 139.663 32.3293 139.663 31.5136C139.663 30.6665 139.49 29.8979 139.145 29.2077C138.831 28.5175 138.345 27.9371 137.685 27.4665C137.026 26.9959 136.195 26.7606 135.19 26.7606H126.763Z" fill="white"/>
<path d="M94.498 8.54883L102.125 22.5253L109.752 8.54883H115.826L104.95 28.4077V41.49H99.3004V28.4077L88.4245 8.54883H94.498Z" fill="white"/>
<path d="M73.7685 42.1962C70.9436 42.1962 68.464 41.7099 66.3297 40.7374C64.2267 39.7335 62.4533 38.4315 61.0095 36.8315C59.597 35.2315 58.5299 33.3962 57.8079 31.3256C57.1174 29.255 56.7722 27.1531 56.7722 25.0197C56.7722 22.8864 57.1174 20.7844 57.8079 18.7139C58.5299 16.6433 59.597 14.808 61.0095 13.208C62.4533 11.608 64.2267 10.3217 66.3297 9.34914C68.464 8.34522 70.9436 7.84326 73.7685 7.84326C75.5262 7.84326 77.2525 8.1413 78.9475 8.73738C80.6424 9.30209 82.1961 10.1178 83.6085 11.1844L80.3128 15.7962C79.6223 15.1688 78.7121 14.6197 77.5821 14.1491C76.4835 13.6786 75.228 13.4433 73.8156 13.4433C71.336 13.4433 69.2644 14.0237 67.6009 15.1844C65.9687 16.3139 64.7446 17.7413 63.9285 19.4668C63.1124 21.1609 62.7044 23.0119 62.7044 25.0197C62.7044 27.0276 63.1124 28.8942 63.9285 30.6197C64.7446 32.3139 65.9687 33.7413 67.6009 34.9021C69.2644 36.0315 71.336 36.5962 73.8156 36.5962C75.5733 36.5962 76.97 36.3452 78.0058 35.8433C79.0416 35.3099 79.8106 34.808 80.3128 34.3374L83.6085 38.855C82.2589 39.9531 80.815 40.7844 79.277 41.3491C77.7704 41.9138 75.9343 42.1962 73.7685 42.1962Z" fill="white"/>
</g>
<defs>
<clipPath id="clip0_244_552">
<rect width="205" height="50" fill="white"/>
</clipPath>
</defs>
</svg>
